<?xml version="1.0" encoding="UTF-8"?>
<svg id="Layer_1" xmlns="http://www.w3.org/2000/svg" version="1.1" viewBox="0 0 800 800">
  <!-- Generator: Adobe Illustrator 30.3.0, SVG Export Plug-In . SVG Version: 2.1.3 Build 182)  -->
  <path d="M400,66.67c-183.67,0-333.33,149.67-333.33,333.33s149.67,333.33,333.33,333.33,333.33-149.67,333.33-333.33S583.67,66.67,400,66.67ZM512,476.67c9.67,9.67,9.67,25.67,0,35.33-5,5-11.33,7.33-17.67,7.33s-12.67-2.33-17.67-7.33l-76.67-76.67-76.67,76.67c-5,5-11.33,7.33-17.67,7.33s-12.67-2.33-17.67-7.33c-9.67-9.67-9.67-25.67,0-35.33l76.67-76.67-76.67-76.67c-9.67-9.67-9.67-25.67,0-35.33s25.67-9.67,35.33,0l76.67,76.67,76.67-76.67c9.67-9.67,25.67-9.67,35.33,0s9.67,25.67,0,35.33l-76.67,76.67,76.67,76.67Z"/>
</svg>